<svg xmlns="http://www.w3.org/2000/svg" version="1.1" xmlns:xlink="http://www.w3.org/1999/xlink" xmlns:svgjs="http://svgjs.dev/svgjs" viewBox="0 0 800 800"><defs><filter id="uuunion-blur" x="-100%" y="-100%" width="400%" height="400%" color-interpolation-filters="sRGB">
        <feGaussianBlur in="SourceGraphic" stdDeviation="7.5 0" result="blur"></feGaussianBlur>
        <feDropShadow stdDeviation="12.307692307692308" in="blur" dx="10" dy="10" flood-color="hsl(0, 0%, 27%)" flood-opacity="0.25" x="0%" y="0%" width="100%" height="100%"></feDropShadow>
      </filter><filter id="uuunion-blur2" x="-100%" y="-100%" width="400%" height="400%" color-interpolation-filters="sRGB">
        <feGaussianBlur in="SourceGraphic" stdDeviation="7.5 0" result="blur"></feGaussianBlur>
        <feDropShadow stdDeviation="12.307692307692308" in="blur" dx="-10" dy="-10" flood-color="hsl(0, 0%, 27%)" flood-opacity="0.25" x="0%" y="0%" width="100%" height="100%"></feDropShadow>
      </filter><linearGradient gradientTransform="rotate(0, 0.5, 0.5)" x1="50%" y1="0%" x2="50%" y2="100%" id="uuunion-grad"><stop stop-color="hsl(0, 0%, 0%)" offset="10%"></stop><stop stop-color="hsl(0, 0%, 27%)" offset="90%"></stop></linearGradient><linearGradient gradientTransform="rotate(135, 0.5, 0.5)" x1="50%" y1="0%" x2="50%" y2="100%" id="uuunion-grad2"><stop stop-color="hsl(0, 0%, 0%)" offset="25%"></stop><stop stop-color="hsl(0, 0%, 27%)" offset="100%"></stop></linearGradient><linearGradient gradientTransform="rotate(333, 0.5, 0.5)" x1="50%" y1="0%" x2="50%" y2="100%" id="uuunion-grad3"><stop stop-color="hsl(0, 0%, 0%)" offset="0%"></stop><stop stop-color="hsl(0, 0%, 27%)" offset="75%"></stop></linearGradient></defs><path d="M-79.69 -77.74Q-64.8 -75.74 -49.91 -73.99 -35.02 -72.6 -20.13 -71.66 -5.24 -71.22 9.64 -71.31 24.53 -71.92 39.42 -73.02 54.31 -74.54 69.2 -76.38 84.09 -78.44 98.98 -80.6 113.87 -82.72 128.76 -84.67 143.65 -86.35 158.54 -87.64 173.43 -88.47 188.31 -88.79 203.2 -88.58 218.09 -87.86 232.98 -86.66 247.87 -85.07 262.76 -83.16 277.65 -81.07 292.54 -78.91 307.43 -76.82 322.32 -74.91 337.21 -73.32 352.1 -72.12 366.99 -71.4 381.88 -71.2 396.77 -71.52 411.66 -72.36 426.55 -73.65 441.44 -75.33 456.33 -77.29 471.22 -79.4 486.1 -81.56 500.99 -83.62 515.88 -85.46 530.77 -86.98 545.66 -88.07 560.55 -88.68 575.44 -88.76 590.33 -88.32 605.22 -87.38 620.11 -85.99 635 -84.24 649.89 -82.24 664.78 -80.1 679.67 -77.96 694.56 -75.93 709.45 -74.15 724.34 -72.73 739.23 -71.74 754.12 -71.25 769.01 -71.28 783.89 -71.84 798.78 -72.89 813.67 -74.36 828.56 -76.18 843.45 -78.22 860.36 -73.97 856.45 -52.63 857.12 -37.7 864.21 -22.76 875.71 -7.82 888.42 7.1 898.77 22.04 903.85 36.97 902.25 51.91 894.42 66.85 882.54 81.78 869.95 96.72 860.18 111.65 855.95 126.59 858.47 141.52 867.01 156.46 879.2 171.4 891.6 186.33 900.76 201.27 904.09 216.2 900.68 231.14 891.47 246.08 879.04 261.01 866.88 275.95 858.4 290.88 855.96 305.82 860.26 320.75 870.09 335.69 882.69 350.63 894.54 365.56 902.31 380.5 903.83 395.43 898.67 410.37 888.28 425.31 875.56 440.24 864.09 455.18 857.08 470.11 856.48 485.05 862.48 499.99 873.38 514.92 886.13 529.86 897.17 544.79 903.39 559.73 903.06 574.66 896.27 589.6 884.91 604.54 872.18 619.47 861.64 634.41 856.24 649.34 857.5 664.28 865.06 679.22 876.81 694.15 889.45 709.09 899.44 724.02 903.98 738.96 901.81 753.89 893.52 768.83 881.44 783.77 868.96 798.7 859.57 813.64 855.9 828.57 858.99 843.51 867.96 858.45 880.3 873.38 865.29 878.99 850.29 884.67 835.28 890.06 820.28 894.84 805.27 898.74 790.27 901.5 775.26 902.97 760.26 903.06 745.25 901.76 730.25 899.15 715.24 895.39 700.24 890.7 685.24 885.37 670.23 879.72 655.23 874.08 640.22 868.8 625.22 864.19 610.21 860.53 595.21 858.04 580.2 856.88 565.2 857.1 550.19 858.7 535.19 861.59 520.18 865.58 505.18 870.44 490.17 875.87 475.17 881.55 460.16 887.14 445.16 892.3 430.15 896.72 415.15 900.13 400.14 902.33 385.14 903.19 370.13 902.65 355.13 900.75 340.12 897.6 325.12 893.39 310.11 888.38 295.11 882.86 280.1 877.17 265.1 871.65 250.09 866.63 235.09 862.41 220.08 859.26 205.08 857.35 190.07 856.8 175.07 857.65 160.06 859.85 145.06 863.25 130.05 867.66 115.05 872.82 100.04 878.41 85.04 884.09 70.03 889.52 55.03 894.39 40.02 898.38 25.02 901.27 10.01 902.88 -4.98 903.12 -19.99 901.96 -34.99 899.48 -50 895.83 -65 891.22 -80.01 885.94 -79.45 870.89 -79.04 855.83 -78.9 840.77 -79.06 825.71 -79.49 810.66 -80.06 795.6 -80.61 780.54 -80.99 765.48 -81.09 750.42 -80.88 735.37 -80.43 720.31 -79.85 705.25 -79.31 690.19 -78.97 675.14 -78.91 660.08 -79.16 645.02 -79.64 629.96 -80.22 614.91 -80.74 599.85 -81.05 584.79 -81.06 569.73 -80.78 554.67 -80.28 539.62 -79.69 524.56 -79.2 509.5 -78.92 494.44 -78.95 479.39 -79.27 464.33 -79.79 449.27 -80.37 434.21 -80.85 419.16 -81.08 404.1 -81.01 389.04 -80.66 373.98 -80.12 358.92 -79.54 343.87 -79.09 328.81 -78.9 313.75 -79.01 298.69 -79.4 283.64 -79.95 268.58 -80.52 253.52 -80.94 238.46 -81.09 223.41 -80.94 208.35 -80.52 193.29 -79.96 178.23 -79.4 163.17 -79.01 148.12 -78.9 133.06 -79.09 118 -79.54 102.94 -80.11 87.89 -80.65 72.83 -81.01 57.77 -81.08 42.71 -80.85 27.66 -80.38 12.6 -79.8 -2.45 -79.27 -17.51 -78.95 -32.57 -78.92 -47.62 -79.19 -62.68 -79.69 -77.74" fill="url(#uuunion-grad)"></path><path d="M-79.69 -77.74Q-79.19 -62.68 -78.92 -47.62 -78.95 -32.57 -79.27 -17.51 -79.8 -2.45 -80.38 12.6 -80.85 27.66 -81.08 42.71 -81.01 57.77 -80.65 72.83 -80.11 87.89 -79.54 102.94 -79.09 118 -78.9 133.06 -79.01 148.12 -79.4 163.17 -79.96 178.23 -80.52 193.29 -80.94 208.35 -81.09 223.41 -80.94 238.46 -80.52 253.52 -79.95 268.58 -79.4 283.64 -79.01 298.69 -78.9 313.75 -79.09 328.81 -79.54 343.87 -80.12 358.92 -80.66 373.98 -81.01 389.04 -81.08 404.1 -70.82 406.57 -60.56 408.86 -50.3 410.91 -40.04 412.68 -29.78 414.1 -19.53 415.14 -0.29 415.94 3.03 415.99 15.83 409.21 28.55 401.79 41.16 393.8 53.6 385.3 65.85 376.41 77.92 367.23 89.79 357.89 101.49 348.52 113.06 339.24 124.55 330.2 136.02 321.48 147.53 313.21 159.17 305.45 170.99 298.25 183.07 291.66 195.44 285.68 208.16 280.29 221.24 275.45 234.67 271.08 248.43 267.12 262.46 263.45 276.71 259.96 291.08 256.54 305.48 253.08 319.79 249.44 333.91 245.54 347.73 241.27 361.16 236.55 374.12 231.34 386.54 225.59 398.41 219.29 409.72 212.45 420.5 205.1 430.82 197.3 440.76 189.11 450.44 180.63 459.99 171.95 469.58 163.16 479.34 154.39 489.43 145.74 500 137.29 511.17 129.15 523.02 121.38 535.63 114.05 549.02 107.18 563.18 100.81 578.04 94.92 593.51 89.49 609.45 84.49 625.72 79.85 642.11 75.49 658.44 71.35 674.49 67.32 690.08 63.32 705.03 59.24 719.18 55 732.42 50.51 744.68 45.72 755.94 40.56 766.23 35 775.63 29 784.27 22.58 792.32 15.75 800 8.53 787.12 -9.19 779.12 -26.91 779.01 -44.63 786.83 -62.36 799.63 -80.08 812.57 -97.81 820.75 -115.53 821.09 -133.25 805.81 -132.46 790.53 -132.11 775.25 -132.23 759.97 -132.81 744.68 -133.82 729.4 -135.2 714.12 -136.86 698.84 -138.7 683.56 -140.63 668.28 -142.51 653 -144.25 637.71 -145.73 622.43 -146.88 607.15 -147.61 591.87 -147.89 576.59 -147.7 561.31 -147.06 546.02 -145.99 530.74 -144.57 515.46 -142.88 500.18 -141.01 484.9 -139.09 469.62 -137.21 454.34 -135.51 439.05 -134.07 423.77 -132.98 408.49 -132.31 393.21 -132.1 377.93 -132.35 362.65 -133.06 347.37 -134.18 332.08 -135.65 316.8 -137.37 301.52 -139.25 286.24 -141.18 270.96 -143.03 255.68 -144.71 240.4 -146.1 225.11 -147.13 209.83 -147.74 194.55 -147.89 179.27 -147.56 163.99 -146.79 148.71 -145.62 133.43 -144.11 118.14 -142.35 102.86 -140.46 87.58 -138.54 72.3 -136.7 57.02 -135.06 41.74 -133.72 26.46 -132.74 11.17 -132.2 -4.1 -132.12 -19.38 -132.51 -34.66 -133.34 -49.94 -134.57 -65.22 -136.12 -80.51 -137.9 -95.79 -139.81 -111.07 -141.72 -126.35 -143.54 -136.42 -131.57 -118.46 -112.84 -108.65 -104.14 -98.89 -95.37 -89.22 -86.56 -79.69 -77.74" fill="url(#uuunion-grad2)" filter="url(#uuunion-blur)"></path><path d="M821.75 413.65Q832.01 412.1 842.27 410.24 852.53 408.09 862.79 405.73 873.05 403.22 883.31 400.62 896.12 404.18 888.28 425.31 875.56 440.24 864.09 455.18 857.08 470.11 856.48 485.05 862.48 499.99 873.38 514.92 886.13 529.86 897.17 544.79 903.39 559.73 903.06 574.66 896.27 589.6 884.91 604.54 872.18 619.47 861.64 634.41 856.24 649.34 857.5 664.28 865.06 679.22 876.81 694.15 889.45 709.09 899.44 724.02 903.98 738.96 901.81 753.89 893.52 768.83 881.44 783.77 868.96 798.7 859.57 813.64 855.9 828.57 858.99 843.51 867.96 858.45 880.3 873.38 866.53 878.53 852.76 883.74 838.99 888.77 825.22 893.35 811.45 897.26 797.68 900.29 783.91 902.29 770.14 903.16 756.37 902.86 742.6 901.39 728.83 898.84 715.06 895.34 701.29 891.06 687.52 886.21 673.75 881.05 659.98 875.84 646.21 870.84 632.44 866.3 618.67 862.46 604.9 859.5 591.13 857.59 577.36 856.81 563.59 857.21 549.82 858.76 536.04 861.39 522.27 864.96 508.5 869.3 494.73 874.17 480.96 879.35 467.19 884.55 453.42 889.53 439.65 894.02 425.88 897.8 412.11 900.68 398.34 902.5 384.57 903.19 370.8 902.7 357.03 901.06 343.26 898.35 329.49 894.71 315.72 890.33 301.95 885.42 288.18 880.23 274.41 875.03 260.64 870.09 246.87 865.65 233.1 861.93 219.33 859.13 205.56 857.39 191.79 856.8 178.02 857.38 164.25 859.1 150.48 861.89 136.71 865.6 122.94 870.03 109.17 874.97 95.4 880.17 81.63 885.36 67.86 890.27 54.09 894.66 40.32 898.31 26.55 901.03 5.72 897.87 -1.62 882.89 -1.84 872.74 -1.96 862.59 -1.95 852.44 -1.82 842.29 -1.19 827.07 -0.29 822 12.4 815.19 25.24 807.5 38.22 798.99 51.29 789.75 64.42 779.93 77.56 769.67 90.64 759.15 103.61 748.54 116.41 738.03 129 727.8 141.33 718.01 153.4 708.8 165.19 700.29 176.72 692.57 188.03 685.7 199.17 679.69 210.2 674.52 221.22 670.15 232.29 666.48 243.53 663.4 255.01 660.78 266.82 658.45 279.01 656.26 291.65 654.03 304.75 651.59 318.31 648.79 332.31 645.48 346.69 641.56 361.37 636.92 376.25 631.51 391.21 625.29 406.13 618.29 420.86 610.52 435.28 602.08 449.27 593.04 462.72 583.54 475.56 573.72 487.73 563.73 499.23 553.72 510.06 543.86 520.3 534.29 530.02 525.15 539.36 516.55 548.46 508.59 557.49 501.33 566.64 494.81 576.07 489.02 585.97 483.95 596.48 479.54 607.74 475.7 619.83 472.32 632.82 469.29 646.7 466.45 661.44 463.68 676.95 460.82 693.11 457.73 709.74 454.28 726.65 450.36 743.63 445.88 760.44 440.77 776.86 434.99 792.67 428.53 814.72 417.52 821.75 413.65" fill="url(#uuunion-grad3)" filter="url(#uuunion-blur2)"></path></svg>